<svg width="45" height="32" viewBox="0 0 45 32" fill="none" xmlns="http://www.w3.org/2000/svg">
<path d="M22.3818 0C18.5064 0 15.3648 3.66787 15.3648 8.19244C15.3648 11.3304 16.8759 14.0556 19.0948 15.4317L16.5217 16.6242L9.67421 19.8C9.01271 20.1308 8.68256 20.6917 8.68256 21.4855V29.0269C8.73698 29.9697 9.3027 30.8485 10.2199 30.8634H34.5807C35.6278 30.7724 36.1575 29.9289 36.1679 29.0269V21.4855C36.1679 20.6917 35.8377 20.1308 35.1762 19.8L28.5767 16.6242L25.834 15.3249C27.9619 13.9178 29.3988 11.2515 29.3988 8.19247C29.3988 3.66788 26.2571 0 22.3818 0ZM11.0634 2.8809C9.39563 2.94424 8.0739 3.66589 7.06973 4.81575C5.95898 6.20017 5.41748 7.84387 5.40701 9.47902C5.47522 11.8969 6.5571 14.1859 8.4831 15.3832L0.793613 18.9566C0.264375 19.155 0 19.618 0 20.3457V26.3982C0.041325 27.2008 0.4581 27.8755 1.23956 27.887H6.35021V21.4855C6.43478 19.7741 7.23848 18.3907 8.68256 17.7156L13.7918 15.285C14.1887 15.0534 14.5692 14.7387 14.9331 14.3418C12.8265 11.0914 12.5339 7.19839 13.8916 3.77426C13.0086 3.23385 12.0162 2.88656 11.0634 2.8809ZM33.8853 2.8809C32.7947 2.90374 31.7868 3.30536 30.9589 3.87255C32.2795 7.32769 31.9152 11.2231 29.9658 14.242C30.3958 14.7382 30.8435 15.1187 31.3065 15.3833L36.2177 17.7156C37.7139 18.5362 38.4854 19.9318 38.5002 21.4856V27.8871H43.759C44.6239 27.8124 44.9925 27.1226 45 26.3982V20.3458C45 19.6842 44.7356 19.2213 44.2064 18.9566L36.6152 15.3334C38.5839 13.8819 39.5724 11.7064 39.5916 9.47902C39.5392 7.71607 39.0007 6.07912 37.9289 4.81575C36.8089 3.60079 35.4197 2.89376 33.8853 2.8809Z" fill="#E6EEFA"/>
<g filter="url(#filter0_d_545_3453)">
<path d="M27 24.1882H23.6588V28H22.3255V24.1882H19V22.8294H22.3255V19H23.6588V22.8294H27V24.1882Z" fill="black"/>
</g>
<defs>
<filter id="filter0_d_545_3453" x="15" y="15" width="16" height="17" filterUnits="userSpaceOnUse" color-interpolation-filters="sRGB">
<feFlood flood-opacity="0" result="BackgroundImageFix"/>
<feColorMatrix in="SourceAlpha" type="matrix" values="0 0 0 0 0 0 0 0 0 0 0 0 0 0 0 0 0 0 127 0" result="hardAlpha"/>
<feOffset/>
<feGaussianBlur stdDeviation="2"/>
<feComposite in2="hardAlpha" operator="out"/>
<feColorMatrix type="matrix" values="0 0 0 0 0 0 0 0 0 0 0 0 0 0 0 0 0 0 0.25 0"/>
<feBlend mode="normal" in2="BackgroundImageFix" result="effect1_dropShadow_545_3453"/>
<feBlend mode="normal" in="SourceGraphic" in2="effect1_dropShadow_545_3453" result="shape"/>
</filter>
</defs>
</svg>
