<svg width="75" height="75" viewBox="0 0 75 75" fill="none" xmlns="http://www.w3.org/2000/svg">
<path d="M43.1875 68.75H31.8125C31.0998 68.7501 30.4084 68.5066 29.8531 68.0599C29.2978 67.6131 28.9119 66.99 28.7594 66.2938L27.4875 60.4062C25.7908 59.6628 24.182 58.7332 22.6906 57.6344L16.95 59.4625C16.2705 59.6792 15.5373 59.6569 14.8723 59.3994C14.2072 59.1419 13.6502 58.6646 13.2938 58.0469L7.59375 48.2C7.24108 47.5817 7.1087 46.8619 7.21826 46.1586C7.32782 45.4552 7.67285 44.8099 8.19688 44.3281L12.65 40.2656C12.4475 38.4253 12.4475 36.5684 12.65 34.7281L8.19688 30.675C7.6721 30.193 7.32661 29.5471 7.21703 28.8431C7.10745 28.139 7.24028 27.4187 7.59375 26.8L13.2813 16.9469C13.6377 16.3291 14.1947 15.8518 14.8598 15.5943C15.5248 15.3368 16.258 15.3146 16.9375 15.5312L22.6781 17.3594C23.4406 16.7969 24.2344 16.2719 25.0531 15.7969C25.8438 15.3531 26.6563 14.95 27.4875 14.5906L28.7625 8.70937C28.9143 8.01312 29.2995 7.38965 29.8542 6.94234C30.4089 6.49503 31.0999 6.25075 31.8125 6.25H43.1875C43.9001 6.25075 44.5911 6.49503 45.1458 6.94234C45.7005 7.38965 46.0857 8.01312 46.2375 8.70937L47.525 14.5938C49.2195 15.3415 50.8279 16.2709 52.3219 17.3656L58.0656 15.5375C58.7447 15.3216 59.4772 15.3443 60.1416 15.6018C60.806 15.8592 61.3625 16.336 61.7188 16.9531L67.4062 26.8062C68.1312 28.0781 67.8813 29.6875 66.8031 30.6781L62.35 34.7406C62.5525 36.5809 62.5525 38.4378 62.35 40.2781L66.8031 44.3406C67.8813 45.3344 68.1312 46.9406 67.4062 48.2125L61.7188 58.0656C61.3623 58.6834 60.8053 59.1607 60.1403 59.4182C59.4752 59.6757 58.742 59.6979 58.0625 59.4813L52.3219 57.6531C50.8317 58.7511 49.2238 59.6797 47.5281 60.4219L46.2375 66.2938C46.0851 66.9894 45.6996 67.6122 45.145 68.0589C44.5903 68.5056 43.8997 68.7494 43.1875 68.75ZM37.4875 25C34.1723 25 30.9929 26.317 28.6487 28.6612C26.3045 31.0054 24.9875 34.1848 24.9875 37.5C24.9875 40.8152 26.3045 43.9946 28.6487 46.3388C30.9929 48.683 34.1723 50 37.4875 50C40.8027 50 43.9821 48.683 46.3263 46.3388C48.6705 43.9946 49.9875 40.8152 49.9875 37.5C49.9875 34.1848 48.6705 31.0054 46.3263 28.6612C43.9821 26.317 40.8027 25 37.4875 25Z" fill="#D2D2D2"/>
</svg>
