<svg width="75" height="75" viewBox="0 0 75 75" fill="none" xmlns="http://www.w3.org/2000/svg">
<path d="M74.0279 38.7149L40.2817 1.18774C38.8606 -0.395912 36.1309 -0.395912 34.7098 1.18774L0.963581 38.7149C0.477847 39.2538 0.159014 39.9223 0.0458501 40.6392C-0.0673138 41.356 0.0300669 42.0904 0.326152 42.7529C0.926085 44.1076 2.26844 44.9782 3.74952 44.9782H11.2487V71.2473C11.2487 72.2426 11.6437 73.1971 12.3469 73.9009C13.0501 74.6046 14.0038 75 14.9983 75H26.247C27.2415 75 28.1952 74.6046 28.8984 73.9009C29.6015 73.1971 29.9966 72.2426 29.9966 71.2473V56.2364H44.9949V71.2473C44.9949 72.2426 45.39 73.1971 46.0931 73.9009C46.7963 74.6046 47.75 75 48.7445 75H59.9932C60.9877 75 61.9414 74.6046 62.6446 73.9009C63.3478 73.1971 63.7428 72.2426 63.7428 71.2473V44.9782H71.242C71.9681 44.9813 72.6795 44.7729 73.2894 44.3784C73.8992 43.9838 74.3812 43.4202 74.6765 42.7562C74.9719 42.0923 75.0678 41.3566 74.9526 40.6391C74.8375 39.9215 74.5162 39.2529 74.0279 38.7149Z" fill="#D2D2D2"/>
</svg>
