<svg width="74" height="74" viewBox="0 0 74 74" fill="none" xmlns="http://www.w3.org/2000/svg">
<path d="M63.4241 45.8183L65.6441 43.5983C65.93 43.3131 66.1567 42.9743 66.3115 42.6013C66.4662 42.2283 66.5458 41.8284 66.5458 41.4246C66.5458 41.0208 66.4662 40.6209 66.3115 40.2479C66.1567 39.8749 65.93 39.5361 65.6441 39.2508L65.5825 39.1892C65.2972 38.9033 64.9584 38.6766 64.5854 38.5218C64.2124 38.3671 63.8125 38.2875 63.4087 38.2875C63.0049 38.2875 62.605 38.3671 62.232 38.5218C61.859 38.6766 61.5202 38.9033 61.235 39.1892L52.4166 48.0075L25.9925 21.5833L34.8108 12.765C35.0966 12.4797 35.3234 12.1409 35.4781 11.7679C35.6329 11.3949 35.7125 10.9951 35.7125 10.5912C35.7125 10.1874 35.6329 9.78757 35.4781 9.41457C35.3234 9.04157 35.0966 8.70275 34.8108 8.4175L34.7491 8.35583C34.4639 8.07 34.1251 7.84322 33.7521 7.6885C33.3791 7.53377 32.9792 7.45413 32.5754 7.45413C32.1716 7.45413 31.7717 7.53377 31.3987 7.6885C31.0257 7.84322 30.6869 8.07 30.4016 8.35583L28.1816 10.5758L25.9616 8.35583C24.7591 7.15333 22.7858 7.15333 21.5833 8.35583L17.1741 12.765L14.9541 10.545C14.366 9.96689 13.5743 9.64295 12.7496 9.64295C11.9248 9.64295 11.1331 9.96689 10.545 10.545C9.96687 11.1332 9.64292 11.9249 9.64292 12.7496C9.64292 13.5743 9.96687 14.366 10.545 14.9542L12.765 17.1742L8.3558 21.5833C8.06997 21.8686 7.8432 22.2074 7.68847 22.5804C7.53374 22.9534 7.4541 23.3533 7.4541 23.7571C7.4541 24.1609 7.53374 24.5608 7.68847 24.9338C7.8432 25.3068 8.06997 25.6456 8.3558 25.9308L10.5758 28.1508L8.3558 30.4017C8.06997 30.6869 7.8432 31.0257 7.68847 31.3987C7.53374 31.7717 7.4541 32.1716 7.4541 32.5754C7.4541 32.9792 7.53374 33.3791 7.68847 33.7521C7.8432 34.1251 8.06997 34.4639 8.3558 34.7492L8.41747 34.8108C9.61997 36.0133 11.5625 36.0133 12.765 34.8108L21.5833 25.9925L48.0075 52.4167L39.1891 61.235C38.9033 61.5203 38.6765 61.8591 38.5218 62.2321C38.3671 62.6051 38.2874 63.0049 38.2874 63.4088C38.2874 63.8126 38.3671 64.2124 38.5218 64.5854C38.6765 64.9584 38.9033 65.2973 39.1891 65.5825L39.2508 65.6442C40.4533 66.8467 42.3958 66.8467 43.5983 65.6442L45.8183 63.4242L48.0383 65.6442C49.2408 66.8467 51.1833 66.8467 52.3858 65.6442L56.795 61.235L59.015 63.455C60.2175 64.6575 62.2216 64.6575 63.4241 63.455C64.6266 62.2525 64.6266 60.2483 63.4241 59.0458L61.2041 56.8258L65.6441 52.4167C65.93 52.1314 66.1567 51.7926 66.3115 51.4196C66.4662 51.0466 66.5458 50.6467 66.5458 50.2429C66.5458 49.8391 66.4662 49.4392 66.3115 49.0662C66.1567 48.6932 65.93 48.3544 65.6441 48.0692L63.4241 45.8183Z" fill="#D2D2D2"/>
</svg>
