<svg width="24" height="25" viewBox="0 0 24 25" fill="none" xmlns="http://www.w3.org/2000/svg">
<path d="M10.2635 20.5271C12.5407 20.5266 14.7523 19.7643 16.5461 18.3615L22.1859 24.0013L24 22.1872L18.3602 16.5474C19.7637 14.7534 20.5265 12.5413 20.5271 10.2635C20.5271 4.60448 15.9226 0 10.2635 0C4.60448 0 0 4.60448 0 10.2635C0 15.9226 4.60448 20.5271 10.2635 20.5271ZM10.2635 2.56588C14.5088 2.56588 17.9612 6.01828 17.9612 10.2635C17.9612 14.5088 14.5088 17.9612 10.2635 17.9612C6.01828 17.9612 2.56588 14.5088 2.56588 10.2635C2.56588 6.01828 6.01828 2.56588 10.2635 2.56588Z" fill="black"/>
<path d="M12.075 8.4496C12.5613 8.93712 12.8294 9.58116 12.8294 10.2637H15.3953C15.3964 9.5894 15.2639 8.92159 15.0054 8.29884C14.7469 7.67609 14.3675 7.11075 13.8891 6.63552C11.9468 4.69571 8.57903 4.69571 6.63794 6.63552L8.44945 8.45217C9.42449 7.4797 11.1051 7.48226 12.075 8.4496Z" fill="black"/>
</svg>
